<?xml version="1.0" encoding="utf-8"?>
<!-- Generator: Adobe Illustrator 24.3.0, SVG Export Plug-In . SVG Version: 6.00 Build 0)  -->
<svg version="1.1" id="Layer_1" xmlns="http://www.w3.org/2000/svg" xmlns:xlink="http://www.w3.org/1999/xlink" x="0px" y="0px"
	 viewBox="0 0 105 116.5" style="enable-background:new 0 0 105 116.5;" xml:space="preserve">
<path d="M52.5,0L0,29.7v57.2l52.5,29.7L105,86.8V29.7L52.5,0z M100.9,84.5l-48.4,27.4L4.1,84.5V32L52.5,4.7L100.9,32V84.5z
	 M10.3,80.8l42.2,23.8l42.2-23.8V35.7L52.5,11.9L10.3,35.7V80.8z M14.4,38.1l38.1-21.5l38.1,21.5v40.4L52.5,100L14.4,78.4L14.4,38.1
	z M52.2,77.1c2.2,0,4,1.8,4,4s-1.8,4-4,4s-4-1.8-4-4S50,77.1,52.2,77.1z M28.3,53.1c2.2,0,4,1.8,4,4s-1.8,4-4,4s-4-1.8-4-4
	S26.1,53.1,28.3,53.1z M52.2,77.1c2.2,0,4,1.8,4,4s-1.8,4-4,4s-4-1.8-4-4S50,77.1,52.2,77.1z M40.2,32.4c2.2,0,4,1.8,4,4s-1.8,4-4,4
	s-4-1.8-4-4S38,32.4,40.2,32.4z M64.1,73.8c2.2,0,4,1.8,4,4s-1.8,4-4,4c-2.2,0-4-1.8-4-4S61.9,73.8,64.1,73.8z M31.5,41.2
	c2.2,0,4,1.8,4,4s-1.8,4-4,4s-4-1.8-4-4S29.3,41.2,31.5,41.2z M31.5,65.1c2.2,0,4,1.8,4,4s-1.8,4-4,4s-4-1.8-4-4
	S29.3,65.1,31.5,65.1z M40.2,73.8c2.2,0,4,1.8,4,4s-1.8,4-4,4s-4-1.8-4-4S38,73.8,40.2,73.8z M80.2,57.2C80.2,42.1,68,29.7,53,29.3
	c-0.3-0.1-0.5-0.1-0.8-0.1c-2.2,0-4,1.8-4,4s1.8,4,4,4h0.1v0.1c11,0,19.9,8.9,19.9,19.9c0,3.2-0.8,6.4-2.3,9.3
	c-0.2,0.2-0.3,0.4-0.4,0.6c-1.1,1.9-0.4,4.4,1.5,5.5s4.3,0.5,5.4-1.4l0.1,0.1C78.9,67,80.2,62.1,80.2,57.2z"/>
</svg>
